<svg xmlns="http://www.w3.org/2000/svg" xmlns:xlink="http://www.w3.org/1999/xlink" width="543" height="451" viewBox="0 0 543 451"><defs><path id="a" d="M139.076 7.806c-46.278 16.219-78.184 49.93-87.058 59.5-14.624 15.763-34.741 37.959-44.59 73.31-4.77 17.121-15.995 57.406 4.245 87.124 4.683 6.876 18.694 16.979 46.714 37.187 31.61 22.796 31.16 20.36 39.282 27.624 26.712 23.883 23.578 43.045 45.653 78.625 7.283 11.737 27.637 44.542 61.579 63.748 21.964 12.428 44.101 16.042 66.123 16.076h.631c14.995-.022 29.931-1.683 44.721-3.326 30.449-3.383 94.32-10.479 151.821-60.562 18.623-16.22 57.672-50.23 71.134-109.435 1.038-4.567 18.459-87.181-32.913-155.123-26.825-35.48-71.686-51.406-160.314-81.812C273.409 15.803 226.204.002 185.476 0c-16.087 0-31.161 2.465-46.4 7.806"/><linearGradient id="b" x1="35.74%" x2="76.282%" y1="85.721%" y2="10.986%"><stop offset="0%" stop-color="#00C3C4"/><stop offset="100%" stop-color="#C1F33C"/></linearGradient></defs><g fill="none" fill-rule="evenodd"><mask id="c" fill="#fff"><use xlink:href="#a"/></mask><path fill="url(#b)" d="M139.076 7.806c-46.278 16.219-78.184 49.93-87.058 59.5-14.624 15.763-34.741 37.959-44.59 73.31-4.77 17.121-15.995 57.406 4.245 87.124 4.683 6.876 18.694 16.979 46.714 37.187 31.61 22.796 31.16 20.36 39.282 27.624 26.712 23.883 23.578 43.045 45.653 78.625 7.283 11.737 27.637 44.542 61.579 63.748 21.964 12.428 44.101 16.042 66.123 16.076h.631c14.995-.022 29.931-1.683 44.721-3.326 30.449-3.383 94.32-10.479 151.821-60.562 18.623-16.22 57.672-50.23 71.134-109.435 1.038-4.567 18.459-87.181-32.913-155.123-26.825-35.48-71.686-51.406-160.314-81.812C273.409 15.803 226.204.002 185.476 0c-16.087 0-31.161 2.465-46.4 7.806l262.58 132.81" mask="url(#c)"/></g></svg>